<svg width="247.835449" height="666.242065" viewBox="0 0 247.835 666.242" fill="none" xmlns="http://www.w3.org/2000/svg" xmlns:xlink="http://www.w3.org/1999/xlink">
	<desc>
			Created with Pixso.
	</desc>
	<defs/>
	<g opacity="0.202499">
		<g style="mix-blend-mode:normal">
			<path id="Path 48" d="M152.09 52.72C151.66 52.72 151.22 52.61 150.82 52.38C142.77 47.77 137.2 41.76 134.71 34.99C134.22 33.66 134.89 32.19 136.22 31.7C137.55 31.22 139.02 31.89 139.51 33.22C142.13 40.32 148.49 45.14 153.36 47.93C154.59 48.64 155.02 50.2 154.31 51.43C153.84 52.25 152.98 52.72 152.09 52.72Z" fill="#EFEFEF" fill-opacity="1.000000" fill-rule="nonzero"/>
		</g>
		<g style="mix-blend-mode:normal">
			<path id="Path 49" d="M155.69 46.89C154.71 46.89 153.77 46.32 153.35 45.36C152.78 44.06 153.37 42.55 154.66 41.98C158.24 40.41 161.19 37.18 162.74 33.13C163.25 31.81 164.73 31.15 166.05 31.66C167.37 32.17 168.03 33.65 167.52 34.97C165.48 40.28 161.54 44.55 156.72 46.67C156.39 46.82 156.03 46.89 155.69 46.89Z" fill="#EFEFEF" fill-opacity="1.000000" fill-rule="nonzero"/>
		</g>
		<g style="mix-blend-mode:normal">
			<path id="Path 50" d="M170.16 29.25C168.75 29.25 167.6 28.1 167.6 26.69C167.6 18.63 165.46 5.12 151.12 5.12C140.24 5.12 134.73 12.37 134.73 26.69C134.73 28.1 133.58 29.25 132.17 29.25C130.76 29.25 129.61 28.1 129.61 26.69C129.61 9.47 137.25 0 151.12 0C164.65 0 172.72 9.97 172.72 26.69C172.72 28.1 171.57 29.25 170.16 29.25Z" fill="#EFEFEF" fill-opacity="1.000000" fill-rule="nonzero"/>
		</g>
		<g style="mix-blend-mode:normal">
			<path id="Path 51" d="M181.57 80.01L120.28 80.01C118.87 80.01 117.72 78.86 117.72 77.45C117.72 70.39 117.98 62.51 119.86 57.59C122.72 50.12 135.01 45.41 136.41 44.9C137.66 44.43 139.06 45.02 139.62 46.23C142.11 51.64 146.35 54.88 150.97 54.88C155.57 54.88 159.65 51.73 162.18 46.23C162.74 45.01 164.14 44.43 165.39 44.9C166.79 45.41 179.07 50.12 181.94 57.59C183.7 62.19 183.64 64.9 183.57 68.34C183.55 69.04 183.54 69.79 183.54 70.61C183.54 72.03 182.39 73.17 180.98 73.17C179.56 73.17 178.42 72.03 178.42 70.61C178.42 69.75 178.43 68.97 178.45 68.23C178.52 65.02 178.56 63.08 177.16 59.43C175.74 55.73 169.52 52.28 165.7 50.56C162.23 56.51 156.86 60 150.97 60C145 60 139.57 56.51 136.1 50.56C132.22 52.29 126.07 55.7 124.65 59.43C123.16 63.29 122.9 70.31 122.85 74.89L181.57 74.89C182.99 74.89 184.13 76.04 184.13 77.45C184.13 78.86 182.99 80.01 181.57 80.01Z" fill="#EFEFEF" fill-opacity="1.000000" fill-rule="nonzero"/>
		</g>
		<g style="mix-blend-mode:normal">
			<path id="Path 52" d="M172.63 29.25L129.56 29.25C128.14 29.25 127 28.1 127 26.69C127 25.27 128.14 24.13 129.56 24.13L172.63 24.13C174.04 24.13 175.19 25.27 175.19 26.69C175.19 28.1 174.04 29.25 172.63 29.25Z" fill="#EFEFEF" fill-opacity="1.000000" fill-rule="nonzero"/>
		</g>
		<g style="mix-blend-mode:normal">
			<path id="Path 53" d="M151.12 19.95C149.7 19.95 148.56 18.8 148.56 17.39L148.56 2.56C148.56 1.14 149.7 0 151.12 0C152.53 0 153.68 1.14 153.68 2.56L153.68 17.39C153.68 18.8 152.53 19.95 151.12 19.95Z" fill="#EFEFEF" fill-opacity="1.000000" fill-rule="nonzero"/>
		</g>
		<g style="mix-blend-mode:normal">
			<path id="Path 54" d="M145.64 29.25C144.23 29.25 143.08 28.1 143.08 26.69L143.08 17.39C143.08 15.98 144.23 14.83 145.64 14.83L156.59 14.83C158.01 14.83 159.16 15.98 159.16 17.39L159.16 20.81C159.16 22.22 158.01 23.37 156.59 23.37C155.18 23.37 154.03 22.22 154.03 20.81L154.03 19.95L148.2 19.95L148.2 26.69C148.2 28.1 147.06 29.25 145.64 29.25Z" fill="#EFEFEF" fill-opacity="1.000000" fill-rule="nonzero"/>
		</g>
		<g style="mix-blend-mode:normal">
			<path id="Path 55" d="M171.26 68L161.84 68C160.43 68 159.28 66.86 159.28 65.44C159.28 64.03 160.43 62.88 161.84 62.88L171.26 62.88C172.68 62.88 173.82 64.03 173.82 65.44C173.82 66.86 172.68 68 171.26 68Z" fill="#EFEFEF" fill-opacity="1.000000" fill-rule="nonzero"/>
		</g>
		<g style="mix-blend-mode:normal">
			<path id="Path 1" d="M7.56 159.13C6.24 159.13 4.96 158.61 4.02 157.67C3.1 156.75 2.56 155.45 2.56 154.13C2.56 152.83 3.1 151.53 4.02 150.59C5.88 148.75 9.22 148.73 11.1 150.59C12.02 151.53 12.56 152.83 12.56 154.13C12.56 155.45 12.02 156.75 11.1 157.67C10.16 158.61 8.86 159.13 7.56 159.13Z" fill="#EFEFEF" fill-opacity="1.000000" fill-rule="nonzero"/>
		</g>
		<g style="mix-blend-mode:normal">
			<path id="Path 2" d="M88.21 181.4C86.43 179.3 86.69 176.14 88.81 174.36C90.91 172.58 94.07 172.84 95.85 174.94C97.63 177.04 97.38 180.2 95.27 182C94.33 182.78 93.19 183.18 92.03 183.18C90.61 183.18 89.21 182.58 88.21 181.4ZM100.78 169.12C98.42 167.7 97.63 164.64 99.04 162.25C100.46 159.87 103.52 159.11 105.9 160.51C108.26 161.91 109.06 164.99 107.64 167.38C106.7 168.94 105.04 169.82 103.34 169.82C102.46 169.82 101.6 169.6 100.78 169.12ZM108.66 153.39C105.94 152.83 104.2 150.19 104.76 147.49C105.32 144.79 107.96 143.05 110.66 143.59C113.36 144.15 115.1 146.79 114.56 149.49C114.06 151.87 111.98 153.49 109.66 153.49C109.34 153.49 109 153.47 108.66 153.39ZM4.92 141.82C2.16 141.77 -0.04 139.48 0 136.72C0.04 133.96 2.34 131.76 5.1 131.82C7.86 131.86 10.06 134.14 10.02 136.9C9.96 139.64 7.64 141.82 4.92 141.82ZM105.34 131.64C104.98 128.9 106.9 126.4 109.66 126.04C112.38 125.7 114.9 127.62 115.24 130.36C115.6 133.1 113.68 135.6 110.92 135.96C110.72 136 110.5 136 110.28 136C107.8 136 105.66 134.16 105.34 131.64ZM6.5 124.3C3.9 123.36 2.58 120.48 3.54 117.89C4.48 115.29 7.36 113.95 9.96 114.92C12.54 115.87 13.88 118.73 12.92 121.34C12.18 123.36 10.26 124.62 8.22 124.62C7.66 124.62 7.08 124.52 6.5 124.3ZM100.72 116.5C99.48 114.03 100.48 111.01 102.96 109.79C105.42 108.55 108.44 109.55 109.66 112.03C110.9 114.51 109.9 117.52 107.42 118.73C106.7 119.1 105.94 119.28 105.2 119.28C103.36 119.28 101.6 118.26 100.72 116.5ZM13.74 108.29C11.6 106.55 11.28 103.39 13.04 101.25C14.78 99.11 17.92 98.79 20.06 100.55C22.2 102.29 22.52 105.45 20.78 107.59C19.78 108.79 18.34 109.41 16.9 109.41C15.78 109.41 14.66 109.05 13.74 108.29ZM91.39 103.69C89.43 101.75 89.39 98.59 91.33 96.63C93.25 94.65 96.44 94.63 98.4 96.55C100.38 98.49 100.4 101.65 98.48 103.63C97.5 104.63 96.2 105.13 94.89 105.13C93.63 105.13 92.37 104.65 91.39 103.69ZM25.81 95.51C24.35 93.17 25.09 90.08 27.43 88.62C29.77 87.16 32.85 87.88 34.31 90.24C35.77 92.59 35.03 95.67 32.69 97.13C31.87 97.63 30.97 97.89 30.07 97.89C28.39 97.89 26.75 97.05 25.81 95.51ZM78.41 94.61C75.91 93.42 74.85 90.44 76.05 87.94C77.23 85.44 80.21 84.38 82.71 85.58C85.21 86.76 86.27 89.74 85.07 92.25C84.21 94.04 82.43 95.09 80.55 95.09C79.83 95.09 79.11 94.93 78.41 94.61ZM41.37 87.36C40.77 84.66 42.47 81.98 45.15 81.38C47.86 80.78 50.54 82.48 51.14 85.16C51.74 87.86 50.04 90.54 47.35 91.14C46.98 91.22 46.61 91.26 46.25 91.26C43.95 91.26 41.89 89.68 41.37 87.36ZM63.18 90.28C60.44 89.96 58.46 87.5 58.76 84.76C59.06 82 61.52 80.02 64.28 80.34C67.02 80.64 69 83.1 68.7 85.86C68.42 88.4 66.24 90.3 63.74 90.3C63.54 90.3 63.36 90.3 63.18 90.28Z" fill="#EFEFEF" fill-opacity="1.000000" fill-rule="nonzero"/>
		</g>
		<g style="mix-blend-mode:normal">
			<path id="Path 3" d="M76.89 192.19C75.57 192.19 74.29 191.65 73.35 190.73C72.43 189.79 71.89 188.5 71.89 187.18C71.89 185.86 72.43 184.58 73.35 183.64C75.21 181.78 78.57 181.78 80.43 183.64C81.35 184.58 81.89 185.86 81.89 187.18C81.89 188.5 81.35 189.79 80.43 190.73C79.49 191.65 78.21 192.19 76.89 192.19Z" fill="#EFEFEF" fill-opacity="1.000000" fill-rule="nonzero"/>
		</g>
		<g style="mix-blend-mode:normal">
			<path id="Path 4" d="M66.84 177.64C65.19 177.64 63.68 176.51 63.26 174.83C62.77 172.85 63.98 170.85 65.96 170.36C80.91 166.65 91.36 153.28 91.36 137.85C91.36 119.38 76.33 104.35 57.87 104.35C39.4 104.35 24.37 119.38 24.37 137.85C24.37 138.52 24.39 139.18 24.43 139.84C24.55 141.88 22.99 143.63 20.96 143.75C18.96 143.86 17.17 142.31 17.05 140.28C17 139.47 16.98 138.66 16.98 137.85C16.98 115.3 35.32 96.97 57.87 96.97C80.41 96.97 98.75 115.3 98.75 137.85C98.75 156.68 85.99 173 67.74 177.53C67.44 177.6 67.14 177.64 66.84 177.64Z" fill="#EFEFEF" fill-opacity="1.000000" fill-rule="nonzero"/>
		</g>
		<g style="mix-blend-mode:normal">
			<path id="Path 5" d="M57.64 194.4L9.91 194.4C6.47 194.4 3.68 192.99 2.26 190.53C0.84 188.08 1.01 184.96 2.73 181.98L26.6 140.64C28.32 137.66 30.93 135.95 33.77 135.95C36.61 135.95 39.23 137.66 40.94 140.64L64.82 181.98C66.53 184.96 66.7 188.08 65.28 190.54C63.86 192.99 61.08 194.4 57.64 194.4ZM8.74 186.9C8.87 186.9 9.26 187.01 9.91 187.01L57.64 187.01C58.46 187.01 58.87 186.83 58.95 186.76C58.88 186.86 58.83 186.38 58.42 185.66L34.55 144.33C34.14 143.62 33.77 143.36 33.68 143.32C33.77 143.36 33.41 143.62 33 144.33L9.13 185.67C8.72 186.38 8.73 186.79 8.74 186.9Z" fill="#EFEFEF" fill-opacity="1.000000" fill-rule="nonzero"/>
		</g>
		<g style="mix-blend-mode:normal">
			<path id="Path 6" d="M33.77 172.92C31.73 172.92 30.08 171.27 30.08 169.23L30.08 154.57C30.08 152.53 31.73 150.88 33.77 150.88C35.81 150.88 37.47 152.53 37.47 154.57L37.47 169.23C37.47 171.27 35.81 172.92 33.77 172.92Z" fill="#EFEFEF" fill-opacity="1.000000" fill-rule="nonzero"/>
		</g>
		<g style="mix-blend-mode:normal">
			<path id="Path 7" d="M33.77 184.82C32.45 184.82 31.17 184.28 30.23 183.34C29.31 182.42 28.77 181.14 28.77 179.82C28.77 178.5 29.31 177.2 30.23 176.28C32.09 174.42 35.45 174.42 37.31 176.28C38.25 177.2 38.77 178.5 38.77 179.82C38.77 181.14 38.25 182.42 37.31 183.34C36.37 184.28 35.09 184.82 33.77 184.82Z" fill="#EFEFEF" fill-opacity="1.000000" fill-rule="nonzero"/>
		</g>
		<g style="mix-blend-mode:normal">
			<path id="Path 31" d="M180.79 228.67C180.46 228.67 180.12 228.67 179.79 228.66C177.95 228.61 176.5 227.08 176.55 225.25C176.6 223.44 178.08 222.01 179.87 222.01C186.38 222.24 191.3 220.38 194.7 216.51C199.54 211.01 201.48 200.89 200.18 188.34C197.12 189.4 193.84 190.16 190.65 190.9C182.96 192.7 175.69 194.39 172.69 199.63C170.38 203.66 170.56 210.05 173.22 218.61C173.76 220.37 172.78 222.23 171.03 222.77C169.28 223.32 167.41 222.34 166.87 220.58C163.59 210.04 163.61 202.1 166.92 196.32C171.36 188.58 180.4 186.47 189.14 184.43C193.69 183.36 197.99 182.36 201.42 180.64C202.37 180.16 203.49 180.16 204.44 180.65C205.39 181.14 206.04 182.05 206.2 183.1C207.7 192.76 208.84 210.52 199.7 220.91C195.16 226.06 188.8 228.67 180.79 228.67Z" fill="#EFEFEF" fill-opacity="1.000000" fill-rule="nonzero"/>
		</g>
		<g style="mix-blend-mode:normal">
			<path id="Path 32" d="M186.66 257.1L182.79 257.1C177.56 257.1 173.47 253.82 173.47 249.64L173.47 245.7C173.47 243.92 171.87 241.96 169.66 241.05C168.62 240.63 166 239.86 163.95 241.93L160.71 245.21C157.92 247.96 153.01 247.19 149.26 243.44L146.53 240.7C144.92 239.1 143.84 237.11 143.47 235.1C143.03 232.67 143.67 230.39 145.22 228.84C145.59 228.47 146.05 228.19 146.56 228.03C173.19 219.57 192.18 193.49 192.37 193.23C193.44 191.74 195.52 191.4 197.01 192.47C198.51 193.54 198.85 195.62 197.78 197.11C196.97 198.24 177.98 224.36 149.97 233.9C150.09 234.37 150.42 235.2 151.23 236L153.97 238.74C154.94 239.71 155.87 240.09 156.33 240.18L159.22 237.25C162.56 233.88 167.53 232.98 172.19 234.91C176.93 236.86 180.12 241.2 180.12 245.7L180.12 249.64C180.23 249.77 181.21 250.45 182.79 250.45L186.66 250.45C188.03 250.45 188.96 250.05 189.34 249.8L189.32 245.68C189.3 240.93 192.18 236.79 196.82 234.85C201.56 232.88 206.88 233.69 210.07 236.88L212.85 239.66C213.09 239.64 214.19 239.46 215.31 238.35L218.05 235.61C219.02 234.64 219.39 233.71 219.48 233.25L216.56 230.35C213.19 227.01 212.29 222.04 214.21 217.39C216.16 212.65 220.5 209.46 225.01 209.46L228.94 209.46C229.08 209.35 229.76 208.38 229.76 206.8L229.76 202.92C229.76 201.55 229.36 200.62 229.11 200.24L224.98 200.26C220.27 200.26 216.09 197.39 214.16 192.75C212.18 188.02 213 182.7 216.19 179.51L218.97 176.73C218.99 176.56 218.78 175.39 217.66 174.28L214.92 171.53C213.95 170.56 213.01 170.18 212.56 170.09L209.66 173.02C206.33 176.39 201.36 177.29 196.7 175.37C191.95 173.41 188.77 169.07 188.77 164.57L188.77 160.63C188.65 160.5 187.68 159.83 186.1 159.83L182.22 159.83C180.85 159.83 179.93 160.22 179.55 160.47L179.57 164.6C179.59 169.34 176.71 173.48 172.07 175.42C167.33 177.4 162 176.58 158.82 173.4L156.03 170.62C155.84 170.55 154.69 170.81 153.58 171.92L150.84 174.66C149.87 175.63 149.49 176.57 149.4 177.02L152.33 179.92C155.69 183.26 156.59 188.22 154.68 192.87C152.73 197.62 148.38 200.8 143.88 200.8L139.95 200.8C139.81 200.92 139.13 201.89 139.13 203.47L139.13 207.36C139.13 208.72 139.53 209.65 139.78 210.03L143.91 210.02C149.11 210.02 153.57 213.46 155.2 218.81C155.73 220.57 154.74 222.43 152.98 222.96C151.24 223.5 149.37 222.51 148.83 220.75C148.23 218.77 146.63 216.67 143.96 216.67L139.32 216.69C135.41 216.67 132.48 212.66 132.48 207.36L132.48 203.47C132.48 198.25 135.76 194.16 139.95 194.16L143.88 194.16C145.66 194.16 147.62 192.55 148.53 190.34C148.95 189.31 149.71 186.7 147.65 184.65L144.37 181.4C141.62 178.61 142.39 173.71 146.14 169.96L148.87 167.22C152.57 163.53 157.78 162.95 160.74 165.91L163.52 168.69C164.78 169.95 167.3 170.2 169.51 169.28C170.54 168.85 172.93 167.54 172.92 164.63L172.89 160.02C172.91 156.1 176.93 153.17 182.22 153.17L186.1 153.17C191.32 153.17 195.42 156.45 195.42 160.63L195.42 164.57C195.42 166.35 197.02 168.31 199.23 169.22C200.27 169.64 202.89 170.41 204.94 168.34L208.18 165.07C210.97 162.31 215.87 163.08 219.62 166.83L222.36 169.57C224.39 171.6 225.55 174.19 225.55 176.68C225.55 178.54 224.88 180.23 223.67 181.44L220.89 184.22C219.63 185.48 219.38 187.99 220.3 190.2C220.73 191.23 222.11 193.6 224.95 193.61L229.56 193.58C233.48 193.61 236.41 197.62 236.41 202.92L236.41 206.8C236.41 212.02 233.13 216.11 228.94 216.11L225.01 216.11C223.2 216.11 221.29 217.68 220.36 219.92C219.94 220.95 219.17 223.57 221.24 225.63L224.51 228.88C227.27 231.66 226.5 236.57 222.75 240.31L220.01 243.05C216.33 246.74 211.11 247.33 208.15 244.37L205.37 241.59C204.1 240.32 201.58 240.07 199.38 240.99C198.35 241.42 195.96 242.73 195.97 245.64L196 250.25C195.97 254.17 191.96 257.1 186.66 257.1Z" fill="#EFEFEF" fill-opacity="1.000000" fill-rule="nonzero"/>
		</g>
		<g style="mix-blend-mode:normal">
			<path id="Path 42" d="M119.9 295.35L105.34 295.28C103.7 295.27 102.38 293.93 102.39 292.29C102.39 290.66 103.72 289.34 105.35 289.34L116.28 289.4L114.15 278.7C113.83 277.09 114.88 275.53 116.49 275.21C118.09 274.89 119.65 275.93 119.97 277.54L122.81 291.8C122.98 292.68 122.75 293.58 122.18 294.27C121.62 294.95 120.78 295.35 119.9 295.35Z" fill="#EFEFEF" fill-opacity="1.000000" fill-rule="nonzero"/>
		</g>
		<g style="mix-blend-mode:normal">
			<path id="Path 43" d="M89.85 367.89C77.71 367.89 66.29 363.15 57.71 354.57C49.12 345.98 44.39 334.57 44.39 322.43C44.39 310.28 49.12 298.87 57.71 290.28C75.43 272.56 104.27 272.56 121.99 290.28C123.15 291.44 123.15 293.32 121.99 294.48C120.84 295.64 118.96 295.64 117.8 294.48C110.33 287.01 100.41 282.9 89.85 282.9C79.29 282.9 69.37 287.01 61.9 294.48C54.44 301.95 50.33 311.87 50.33 322.43C50.33 332.98 54.44 342.9 61.9 350.37C69.37 357.84 79.29 361.95 89.85 361.95C100.4 361.95 110.33 357.84 117.79 350.37C130.79 337.37 133.16 317.38 123.54 301.75C122.68 300.35 123.12 298.52 124.51 297.67C125.91 296.81 127.74 297.24 128.6 298.64C139.66 316.62 136.94 339.62 121.99 354.57C113.41 363.16 101.99 367.89 89.85 367.89Z" fill="#EFEFEF" fill-opacity="1.000000" fill-rule="nonzero"/>
		</g>
		<g style="mix-blend-mode:normal">
			<path id="Path 44" d="M110.71 345.34L68.98 345.34C67.34 345.34 66.01 344.01 66.01 342.37C66.01 340.73 67.34 339.41 68.98 339.41L110.71 339.41C112.35 339.41 113.68 340.73 113.68 342.37C113.68 344.01 112.35 345.34 110.71 345.34Z" fill="#EFEFEF" fill-opacity="1.000000" fill-rule="nonzero"/>
		</g>
		<g style="mix-blend-mode:normal">
			<path id="Path 45" d="M94.2 307.15C91.43 307.15 89.09 305.82 87.39 304.84C84.29 303.07 83.3 302.66 81.08 304.88C79.92 306.04 78.05 306.04 76.89 304.88C75.73 303.72 75.73 301.84 76.89 300.68C82.41 295.16 87.37 297.99 90.33 299.69C93.41 301.45 94.68 302.18 97.49 299.37C98.65 298.21 100.53 298.21 101.68 299.37C102.84 300.53 102.84 302.41 101.68 303.57C98.98 306.26 96.45 307.15 94.2 307.15Z" fill="#EFEFEF" fill-opacity="1.000000" fill-rule="nonzero"/>
		</g>
		<g style="mix-blend-mode:normal">
			<path id="Path 46" d="M72.05 345.34C71.97 345.34 71.89 345.34 71.81 345.33C70.18 345.2 68.96 343.77 69.08 342.14L71.56 310.56C71.68 309.02 72.97 307.83 74.52 307.83L81.93 307.83C83.48 307.83 84.77 309.02 84.89 310.56L86.84 335.31C86.96 336.94 85.74 338.37 84.11 338.5C82.49 338.63 81.05 337.41 80.92 335.77L79.19 313.76L77.26 313.76L75 342.6C74.88 344.16 73.58 345.34 72.05 345.34Z" fill="#EFEFEF" fill-opacity="1.000000" fill-rule="nonzero"/>
		</g>
		<g style="mix-blend-mode:normal">
			<path id="Path 47" d="M106.45 345.34C104.81 345.34 103.48 344.01 103.48 342.37L103.48 326.73L90.56 326.73C88.92 326.73 87.6 325.41 87.6 323.76C87.6 322.13 88.92 320.8 90.56 320.8L106.45 320.8C108.08 320.8 109.41 322.13 109.41 323.76L109.41 342.37C109.41 344.01 108.08 345.34 106.45 345.34Z" fill="#EFEFEF" fill-opacity="1.000000" fill-rule="nonzero"/>
		</g>
		<g style="mix-blend-mode:normal">
			<path id="Path 33" d="M245.2 405.92L168.12 405.92C166.67 405.92 165.49 404.74 165.49 403.29L165.49 355.58C165.49 354.13 166.67 352.95 168.12 352.95L245.2 352.95C246.65 352.95 247.83 354.13 247.83 355.58C247.83 357.04 246.65 358.21 245.2 358.21L170.76 358.21L170.76 400.65L242.56 400.65L242.56 364.54C242.56 363.08 243.74 361.91 245.2 361.91C246.65 361.91 247.83 363.08 247.83 364.54L247.83 403.29C247.83 404.74 246.65 405.92 245.2 405.92Z" fill="#EFEFEF" fill-opacity="1.000000" fill-rule="nonzero"/>
		</g>
		<g style="mix-blend-mode:normal">
			<path id="Path 34" d="M198.32 418.61C196.86 418.61 195.68 417.43 195.68 415.97L195.68 409.56C195.68 408.1 196.86 406.92 198.32 406.92C199.77 406.92 200.95 408.1 200.95 409.56L200.95 415.97C200.95 417.43 199.77 418.61 198.32 418.61Z" fill="#EFEFEF" fill-opacity="1.000000" fill-rule="nonzero"/>
		</g>
		<g style="mix-blend-mode:normal">
			<path id="Path 35" d="M215.01 418.61C213.55 418.61 212.37 417.43 212.37 415.97L212.37 409.56C212.37 408.1 213.55 406.92 215.01 406.92C216.46 406.92 217.64 408.1 217.64 409.56L217.64 415.97C217.64 417.43 216.46 418.61 215.01 418.61Z" fill="#EFEFEF" fill-opacity="1.000000" fill-rule="nonzero"/>
		</g>
		<g style="mix-blend-mode:normal">
			<path id="Path 36" d="M229.97 418.61L183.35 418.61C181.89 418.61 180.72 417.43 180.72 415.97C180.72 414.52 181.89 413.34 183.35 413.34L229.97 413.34C231.42 413.34 232.6 414.52 232.6 415.97C232.6 417.43 231.42 418.61 229.97 418.61Z" fill="#EFEFEF" fill-opacity="1.000000" fill-rule="nonzero"/>
		</g>
		<g style="mix-blend-mode:normal">
			<path id="Path 37" d="M176.38 395.63C175.07 395.63 173.94 394.65 173.77 393.31C173.6 391.87 174.63 390.56 176.07 390.38C176.42 390.34 211.27 385.86 232.36 363.79C233.16 362.95 234.43 362.74 235.47 363.27C236.51 363.8 237.07 364.96 236.85 366.11L235.13 375.13C234.86 376.55 233.47 377.49 232.05 377.22C230.62 376.94 229.68 375.56 229.95 374.13L230.16 373.04C207.93 391.64 178.08 395.45 176.71 395.61C176.6 395.62 176.49 395.63 176.38 395.63Z" fill="#EFEFEF" fill-opacity="1.000000" fill-rule="nonzero"/>
		</g>
		<g style="mix-blend-mode:normal">
			<path id="Path 38" d="M225.31 368.59C223.9 368.59 222.74 367.47 222.68 366.05C222.63 364.6 223.76 363.37 225.21 363.32L234.16 362.98C235.6 362.91 236.84 364.06 236.9 365.51C236.95 366.97 235.82 368.19 234.36 368.24L225.42 368.59C225.38 368.59 225.35 368.59 225.31 368.59Z" fill="#EFEFEF" fill-opacity="1.000000" fill-rule="nonzero"/>
		</g>
		<g style="mix-blend-mode:normal">
			<path id="Path 39" d="M233.24 395.63C231.79 395.63 230.61 394.45 230.61 393L230.61 381.43C230.61 379.97 231.79 378.79 233.24 378.79C234.7 378.79 235.88 379.97 235.88 381.43L235.88 393C235.88 394.45 234.7 395.63 233.24 395.63Z" fill="#EFEFEF" fill-opacity="1.000000" fill-rule="nonzero"/>
		</g>
		<g style="mix-blend-mode:normal">
			<path id="Path 40" d="M220.35 395.63C218.89 395.63 217.71 394.45 217.71 393L217.71 387.09C217.71 385.64 218.89 384.46 220.35 384.46C221.8 384.46 222.98 385.64 222.98 387.09L222.98 393C222.98 394.45 221.8 395.63 220.35 395.63Z" fill="#EFEFEF" fill-opacity="1.000000" fill-rule="nonzero"/>
		</g>
		<g style="mix-blend-mode:normal">
			<path id="Path 41" d="M207.45 395.63C206 395.63 204.82 394.45 204.82 393L204.82 391.7C204.82 390.24 206 389.06 207.45 389.06C208.91 389.06 210.09 390.24 210.09 391.7L210.09 393C210.09 394.45 208.91 395.63 207.45 395.63Z" fill="#EFEFEF" fill-opacity="1.000000" fill-rule="nonzero"/>
		</g>
		<g style="mix-blend-mode:normal">
			<path id="Path 26" d="M131.81 666.24C124.93 666.24 116.9 664.75 108.41 663.17C103.12 662.19 97.65 661.18 92.37 660.52C90.89 660.33 89.83 658.98 90.01 657.49C90.2 656 91.56 654.94 93.05 655.13C98.49 655.8 104.03 656.83 109.4 657.83C117.64 659.36 125.43 660.8 131.81 660.8C140.71 660.8 154.05 656.3 167.5 648.76C168.45 648.23 169.13 647.44 169.36 646.61C169.52 646.01 169.44 645.43 169.11 644.87C168.22 643.33 165.96 642.74 164.18 643.58C154.49 648.16 139.84 655.09 131.21 653.11C129.48 652.71 127.03 651.93 124.19 651.03C119.62 649.58 113.94 647.78 108.62 646.71C107.15 646.42 106.2 644.99 106.49 643.52C106.79 642.05 108.22 641.09 109.69 641.39C115.3 642.51 121.14 644.37 125.83 645.86C128.56 646.72 130.91 647.46 132.43 647.81C139.23 649.37 153.39 642.68 161.86 638.67C166.17 636.64 171.53 638.19 173.81 642.15C174.86 643.96 175.14 646.05 174.6 648.04C173.99 650.27 172.37 652.26 170.15 653.5C155.72 661.59 141.74 666.24 131.81 666.24Z" fill="#EFEFEF" fill-opacity="1.000000" fill-rule="nonzero"/>
		</g>
		<g style="mix-blend-mode:normal">
			<path id="Path 27" d="M142.25 643.96C141.15 643.96 140.12 643.28 139.71 642.19C139.18 640.79 139.9 639.22 141.3 638.7C145.51 637.12 149.39 635.22 153.14 633.39C154.4 632.78 155.62 632.18 156.81 631.62C160.79 629.73 164.92 630.25 167.35 632.94C169.49 635.31 169.7 638.78 167.89 641.77C167.12 643.06 165.45 643.47 164.16 642.69C162.88 641.92 162.47 640.25 163.24 638.96C163.81 638.02 163.84 637.15 163.32 636.58C162.73 635.92 161.28 635.51 159.14 636.52C157.96 637.08 156.76 637.67 155.53 638.27C151.84 640.07 147.66 642.12 143.21 643.78C142.89 643.9 142.57 643.96 142.25 643.96Z" fill="#EFEFEF" fill-opacity="1.000000" fill-rule="nonzero"/>
		</g>
		<g style="mix-blend-mode:normal">
			<path id="Path 28" d="M137.86 636.97C136.76 636.97 135.73 636.3 135.32 635.21C134.79 633.81 135.5 632.24 136.91 631.71C140.99 630.19 143.07 629.15 145.72 627.85C146.74 627.35 147.83 626.81 149.13 626.19C152.85 624.43 156.71 624.76 159.2 627.05C161.34 629.01 162 631.99 160.94 634.84C160.42 636.25 158.86 636.96 157.45 636.44C156.05 635.92 155.33 634.36 155.85 632.95C156.14 632.18 156.03 631.5 155.53 631.05C154.91 630.48 153.47 630.15 151.45 631.1C150.18 631.7 149.12 632.23 148.12 632.72C145.45 634.04 143.14 635.18 138.81 636.8C138.5 636.92 138.18 636.97 137.86 636.97Z" fill="#EFEFEF" fill-opacity="1.000000" fill-rule="nonzero"/>
		</g>
		<g style="mix-blend-mode:normal">
			<path id="Path 29" d="M126.8 651.32C125.69 651.32 124.53 651.15 123.33 650.76C121.9 650.3 121.12 648.77 121.58 647.34C122.04 645.91 123.57 645.13 125 645.59C127.78 646.49 129.98 645.14 130.44 643.87C130.93 642.5 129.14 641.23 127.3 640.5C126.56 640.21 125.79 639.89 124.99 639.56C118.24 636.78 108.99 632.99 92.71 632.99C91.21 632.99 89.99 631.77 89.99 630.27C89.99 628.77 91.21 627.55 92.71 627.55C110.07 627.55 119.88 631.59 127.05 634.53C127.84 634.86 128.58 635.16 129.31 635.45C135.72 637.99 136.68 642.56 135.55 645.71C134.44 648.78 131.03 651.32 126.8 651.32Z" fill="#EFEFEF" fill-opacity="1.000000" fill-rule="nonzero"/>
		</g>
		<g style="mix-blend-mode:normal">
			<path id="Path 30" d="M128.52 631.44C127.02 631.44 125.8 630.23 125.8 628.73C125.8 623.05 125.44 620.56 124.44 619.21C122.37 616.42 119.64 615.11 116.75 613.73C113.18 612.02 109.14 610.08 106.42 605.23C102.98 599.07 103.48 590.34 103.73 586.15C103.77 585.45 103.82 584.57 103.8 584.33C103.73 583.2 104.37 582.1 105.41 581.64C106.44 581.17 107.66 581.37 108.45 582.18C110.59 584.37 113.89 584.95 117.39 585.57C119.79 586 122.28 586.44 124.62 587.42C131.04 590.12 134.85 595.11 135.76 601.82C140.4 598.38 146 598.05 150.44 597.78C152.09 597.68 153.65 597.58 154.95 597.35C155.82 597.19 156.73 597.48 157.36 598.11C157.99 598.75 158.26 599.65 158.09 600.53C158.08 600.63 158.06 600.76 158.04 600.93C157.03 608.81 152.91 614.19 145.81 616.92C140.16 619.08 138.25 619.82 138.25 626.96C138.25 628.46 137.04 629.68 135.54 629.68C134.04 629.68 132.82 628.46 132.82 626.96C132.82 616.61 137.02 614.47 143.86 611.85C149.31 609.76 151.3 605.98 152.1 603.12C151.67 603.15 151.22 603.17 150.77 603.2C144.89 603.56 138.8 603.92 135.32 610.68C134.71 611.87 133.33 612.44 132.07 612.02C130.8 611.61 130.02 610.34 130.23 609.02C131.53 600.71 128.94 595.13 122.52 592.43C120.74 591.68 118.65 591.31 116.44 590.92C114.04 590.5 111.44 590.04 109.02 588.99C108.88 592.99 109.01 598.72 111.16 602.58C113.04 605.93 115.85 607.27 119.1 608.83C122.3 610.37 125.93 612.1 128.8 615.97C130.85 618.74 131.23 622.44 131.23 628.73C131.23 630.23 130.02 631.44 128.52 631.44Z" fill="#EFEFEF" fill-opacity="1.000000" fill-rule="nonzero"/>
		</g>
		<g style="mix-blend-mode:normal">
			<path id="Path 19" d="M215.07 560.52L197.69 560.52C188.76 560.52 181.5 553.27 181.5 544.35L181.5 506.97C181.5 505.7 182.53 504.67 183.8 504.67L228.95 504.67C230.22 504.67 231.25 505.7 231.25 506.97C231.25 508.24 230.22 509.27 228.95 509.27L186.11 509.27L186.11 544.35C186.11 550.73 191.3 555.92 197.69 555.92L215.07 555.92C221.45 555.92 226.65 550.73 226.65 544.35L226.65 513.88C226.65 512.61 227.68 511.58 228.95 511.58C230.22 511.58 231.25 512.61 231.25 513.88L231.25 544.35C231.25 553.27 223.99 560.52 215.07 560.52Z" fill="#EFEFEF" fill-opacity="1.000000" fill-rule="nonzero"/>
		</g>
		<g style="mix-blend-mode:normal">
			<path id="Path 20" d="M219.92 546.65C218.65 546.65 217.62 545.62 217.62 544.35L217.62 513.88C217.62 512.61 218.65 511.58 219.92 511.58C221.19 511.58 222.22 512.61 222.22 513.88L222.22 544.35C222.22 545.62 221.19 546.65 219.92 546.65Z" fill="#EFEFEF" fill-opacity="1.000000" fill-rule="nonzero"/>
		</g>
		<g style="mix-blend-mode:normal">
			<path id="Path 21" d="M210.89 546.65C209.62 546.65 208.59 545.62 208.59 544.35L208.59 513.88C208.59 512.61 209.62 511.58 210.89 511.58C212.16 511.58 213.19 512.61 213.19 513.88L213.19 544.35C213.19 545.62 212.16 546.65 210.89 546.65Z" fill="#EFEFEF" fill-opacity="1.000000" fill-rule="nonzero"/>
		</g>
		<g style="mix-blend-mode:normal">
			<path id="Path 22" d="M201.86 546.65C200.59 546.65 199.56 545.62 199.56 544.35L199.56 513.88C199.56 512.61 200.59 511.58 201.86 511.58C203.13 511.58 204.16 512.61 204.16 513.88L204.16 544.35C204.16 545.62 203.13 546.65 201.86 546.65Z" fill="#EFEFEF" fill-opacity="1.000000" fill-rule="nonzero"/>
		</g>
		<g style="mix-blend-mode:normal">
			<path id="Path 23" d="M192.83 546.65C191.56 546.65 190.53 545.62 190.53 544.35L190.53 513.88C190.53 512.61 191.56 511.58 192.83 511.58C194.1 511.58 195.14 512.61 195.14 513.88L195.14 544.35C195.14 545.62 194.1 546.65 192.83 546.65Z" fill="#EFEFEF" fill-opacity="1.000000" fill-rule="nonzero"/>
		</g>
		<g style="mix-blend-mode:normal">
			<path id="Path 24" d="M231.72 501.23L181.03 501.23C179.76 501.23 178.73 500.2 178.73 498.93C178.73 497.66 179.76 496.63 181.03 496.63L231.72 496.63C232.99 496.63 234.02 497.66 234.02 498.93C234.02 500.2 232.99 501.23 231.72 501.23Z" fill="#EFEFEF" fill-opacity="1.000000" fill-rule="nonzero"/>
		</g>
		<g style="mix-blend-mode:normal">
			<path id="Path 25" d="M211.01 493.2L201.74 493.2C200.47 493.2 199.44 492.17 199.44 490.89C199.44 489.62 200.47 488.59 201.74 488.59L211.01 488.59C212.28 488.59 213.32 489.62 213.32 490.89C213.32 492.17 212.28 493.2 211.01 493.2Z" fill="#EFEFEF" fill-opacity="1.000000" fill-rule="nonzero"/>
		</g>
		<g style="mix-blend-mode:normal">
			<path id="Path 8" d="M10.35 486.02C9.19 486.02 8.03 485.54 7.2 484.6C5.67 482.86 5.84 480.22 7.58 478.69C13.42 473.56 19.97 471.49 24.06 470.66L24.06 436.94C24.06 434.63 25.94 432.75 28.25 432.75L67.33 432.75C69.65 432.75 71.52 434.63 71.52 436.94C71.52 439.25 69.65 441.13 67.33 441.13L32.44 441.13L32.44 474.29C32.44 476.54 30.66 478.39 28.42 478.48C28.35 478.48 19.96 478.96 13.11 484.98C12.32 485.68 11.33 486.02 10.35 486.02Z" fill="#EFEFEF" fill-opacity="1.000000" fill-rule="nonzero"/>
		</g>
		<g style="mix-blend-mode:normal">
			<path id="Path 9" d="M66.44 475.26L43.19 475.26C40.88 475.26 39 473.39 39 471.07L39 439.2C39 436.89 40.88 435.02 43.19 435.02C45.5 435.02 47.38 436.89 47.38 439.2L47.38 466.89L66.44 466.89C68.75 466.89 70.63 468.76 70.63 471.07C70.63 473.39 68.75 475.26 66.44 475.26Z" fill="#EFEFEF" fill-opacity="1.000000" fill-rule="nonzero"/>
		</g>
		<g style="mix-blend-mode:normal">
			<path id="Path 10" d="M117.74 496.07C115.42 496.07 113.55 494.19 113.55 491.88L113.55 478.93L78.96 475.24C77.39 475.07 76.05 474.03 75.49 472.55L66.4 448.5C65.58 446.34 66.68 443.92 68.84 443.1C71 442.29 73.42 443.38 74.24 445.54L82.41 467.18L118.18 471C120.31 471.23 121.93 473.03 121.93 475.17L121.93 491.88C121.93 494.19 120.05 496.07 117.74 496.07Z" fill="#EFEFEF" fill-opacity="1.000000" fill-rule="nonzero"/>
		</g>
		<g style="mix-blend-mode:normal">
			<path id="Path 11" d="M31.86 535.92C16.93 535.92 4.78 523.77 4.78 508.84C4.78 493.9 16.93 481.75 31.86 481.75C46.8 481.75 58.95 493.9 58.95 508.84C58.95 523.77 46.8 535.92 31.86 535.92ZM31.86 490.13C21.55 490.13 13.16 498.52 13.16 508.84C13.16 519.15 21.55 527.54 31.86 527.54C42.18 527.54 50.57 519.15 50.57 508.84C50.57 498.52 42.18 490.13 31.86 490.13Z" fill="#EFEFEF" fill-opacity="1.000000" fill-rule="nonzero"/>
		</g>
		<g style="mix-blend-mode:normal">
			<path id="Path 12" d="M31.86 520.88C25.22 520.88 19.81 515.48 19.81 508.84C19.81 502.19 25.22 496.78 31.86 496.78C38.51 496.78 43.91 502.19 43.91 508.84C43.91 515.48 38.51 520.88 31.86 520.88ZM31.86 505.16C29.84 505.16 28.19 506.81 28.19 508.84C28.19 510.86 29.84 512.51 31.86 512.51C33.89 512.51 35.54 510.86 35.54 508.84C35.54 506.81 33.89 505.16 31.86 505.16Z" fill="#EFEFEF" fill-opacity="1.000000" fill-rule="nonzero"/>
		</g>
		<g style="mix-blend-mode:normal">
			<path id="Path 13" d="M118.04 535.92C108.33 535.92 100.43 528.01 100.43 518.3C100.43 508.58 108.33 500.68 118.04 500.68C127.76 500.68 135.66 508.58 135.66 518.3C135.66 528.01 127.76 535.92 118.04 535.92ZM118.04 509.06C112.95 509.06 108.81 513.2 108.81 518.3C108.81 523.39 112.95 527.54 118.04 527.54C123.14 527.54 127.28 523.39 127.28 518.3C127.28 513.2 123.14 509.06 118.04 509.06Z" fill="#EFEFEF" fill-opacity="1.000000" fill-rule="nonzero"/>
		</g>
		<g style="mix-blend-mode:normal">
			<path id="Path 14" d="M93.17 522.49C90.86 522.49 88.99 520.61 88.99 518.3C88.99 502.28 102.02 489.25 118.04 489.25C121.97 489.25 125.78 490.01 129.35 491.53C131.48 492.43 132.48 494.89 131.58 497.02C130.67 499.15 128.22 500.14 126.09 499.24C123.55 498.17 120.84 497.62 118.04 497.62C106.64 497.62 97.36 506.9 97.36 518.3C97.36 520.61 95.49 522.49 93.17 522.49Z" fill="#EFEFEF" fill-opacity="1.000000" fill-rule="nonzero"/>
		</g>
		<g style="mix-blend-mode:normal">
			<circle id="Ellipse 1" r="5.671248" transform="matrix(0.160183 -0.987087 0.987087 0.160183 118.045 518.303)" fill="#EFEFEF" fill-opacity="1.000000"/>
		</g>
		<g style="mix-blend-mode:normal">
			<path id="Path 15" d="M98.05 467.73C95.74 467.73 93.86 465.85 93.86 463.54L93.86 455.17C93.86 447.28 100.89 444.41 105.61 444.41C107.92 444.41 109.8 446.28 109.8 448.6C109.8 450.91 107.92 452.79 105.61 452.79C104.38 452.81 102.24 453.16 102.24 455.17L102.24 463.54C102.24 465.85 100.36 467.73 98.05 467.73Z" fill="#EFEFEF" fill-opacity="1.000000" fill-rule="nonzero"/>
		</g>
		<g style="mix-blend-mode:normal">
			<path id="Path 16" d="M94.46 514.61L65.72 514.61C63.4 514.61 61.53 512.73 61.53 510.42C61.53 508.1 63.4 506.23 65.72 506.23L94.46 506.23C96.77 506.23 98.65 508.1 98.65 510.42C98.65 512.73 96.77 514.61 94.46 514.61Z" fill="#EFEFEF" fill-opacity="1.000000" fill-rule="nonzero"/>
		</g>
		<g style="mix-blend-mode:normal">
			<path id="Path 17" d="M88.17 488.9L72.65 488.9C70.34 488.9 68.46 487.02 68.46 484.71C68.46 482.4 70.34 480.52 72.65 480.52L88.17 480.52C90.49 480.52 92.36 482.4 92.36 484.71C92.36 487.02 90.49 488.9 88.17 488.9Z" fill="#EFEFEF" fill-opacity="1.000000" fill-rule="nonzero"/>
		</g>
		<g style="mix-blend-mode:normal">
			<path id="Path 18" d="M88.17 500.22L72.65 500.22C70.34 500.22 68.46 498.34 68.46 496.03C68.46 493.72 70.34 491.84 72.65 491.84L88.17 491.84C90.49 491.84 92.36 493.72 92.36 496.03C92.36 498.34 90.49 500.22 88.17 500.22Z" fill="#EFEFEF" fill-opacity="1.000000" fill-rule="nonzero"/>
		</g>
	</g>
</svg>
