<svg width="10.312500" height="20.000000" viewBox="0 0 10.3125 20" fill="none" xmlns="http://www.w3.org/2000/svg" xmlns:xlink="http://www.w3.org/1999/xlink">
	<desc>
			Created with Pixso.
	</desc>
	<defs/>
	<g style="mix-blend-mode:normal">
		<path id="" d="M6.67 20L3 20L3 11.05L0 11.05L0 7.5L3 7.5L3 4.68C3 3.2 3.39 2.07 4.25 1.25C5.07 0.42 6.17 0 7.57 0C8.67 0 9.6 0.07 10.31 0.15L10.31 3.32L8.43 3.32C7.73 3.32 7.22 3.47 6.99 3.78C6.75 4.06 6.67 4.49 6.67 5.03L6.67 7.5L10 7.5L9.53 11.05L6.67 11.05L6.67 20Z" fill="#FFFFFF" fill-opacity="1.000000" fill-rule="evenodd"/>
	</g>
</svg>
