<svg width="17.500000" height="17.500000" viewBox="0 0 17.5 17.5" fill="none" xmlns="http://www.w3.org/2000/svg" xmlns:xlink="http://www.w3.org/1999/xlink">
	<desc>
			Created with Pixso.
	</desc>
	<defs/>
	<g style="mix-blend-mode:normal">
		<path id="" d="M3.59 3.59C3.16 4.02 2.65 4.21 2.1 4.21C1.52 4.21 1.01 4.02 0.62 3.59C0.19 3.2 0 2.69 0 2.1C0 1.56 0.19 1.05 0.62 0.62C1.01 0.23 1.52 0 2.1 0C2.65 0 3.16 0.23 3.59 0.62C3.98 1.05 4.21 1.56 4.21 2.1C4.21 2.69 3.98 3.2 3.59 3.59ZM17.5 11.09L17.5 17.5L13.86 17.5L13.86 11.79C13.86 10.85 13.78 10.19 13.63 9.76C13.32 9.06 12.77 8.71 11.95 8.71Q11.07 8.71 10.57 9.14Q10.34 9.34 10.19 9.64C9.92 10.11 9.8 10.82 9.8 11.71L9.8 17.5L6.21 17.5L6.21 5.82L9.68 5.82L9.68 7.42L9.72 7.42C9.96 6.91 10.39 6.48 10.97 6.13C11.6 5.74 12.3 5.5 13.16 5.5C14.84 5.5 16.01 6.05 16.71 7.1C17.22 7.96 17.5 9.29 17.5 11.09ZM3.9 5.82L3.9 17.5L0.27 17.5L0.27 5.82L3.9 5.82Z" fill="#FFFFFF" fill-opacity="1.000000" fill-rule="evenodd"/>
	</g>
</svg>
