<svg width="220.000244" height="50.234375" viewBox="0 0 220 50.2344" fill="none" xmlns="http://www.w3.org/2000/svg" xmlns:xlink="http://www.w3.org/1999/xlink">
	<desc>
			Created with Pixso.
	</desc>
	<defs/>
	<g style="mix-blend-mode:normal">
		<path id="Path 809" d="M63.71 14.15L69.27 14.15L69.27 36.62L63.71 36.62L63.71 14.15ZM71.47 28.13C71.47 22.58 74.88 19.26 80.14 19.26C85.4 19.26 88.81 22.58 88.81 28.13C88.81 33.69 85.47 37.02 80.14 37.02C74.8 37.02 71.47 33.78 71.47 28.13ZM83.23 28.13C83.23 25.08 82.03 23.28 80.14 23.28C78.25 23.28 77.06 25.13 77.06 28.13C77.06 31.13 78.23 32.95 80.14 32.95C82.05 32.95 83.23 31.23 83.23 28.13ZM90.9 37.71L96.23 37.71C96.49 38.27 96.92 38.74 97.46 39.04C98 39.34 98.62 39.46 99.23 39.38C101.35 39.38 102.46 38.23 102.46 36.56L102.46 33.45L102.35 33.45C101.9 34.4 101.19 35.2 100.28 35.74C99.38 36.28 98.34 36.54 97.29 36.49C93.23 36.49 90.55 33.39 90.55 28.08C90.55 22.76 93.1 19.41 97.36 19.41C98.45 19.37 99.52 19.66 100.43 20.24C101.34 20.82 102.06 21.67 102.48 22.67L102.48 19.58L108.03 19.58L108.03 36.43C108.03 40.49 104.46 43.01 99.18 43.01C94.27 43.01 91.21 40.78 90.9 37.71ZM102.48 28.11C102.48 25.41 101.24 23.71 99.27 23.71C97.31 23.71 96.1 25.39 96.1 28.11C96.1 30.84 97.29 32.37 99.27 32.37C101.25 32.37 102.48 30.86 102.48 28.11ZM110.13 28.11C110.13 22.56 113.53 19.24 118.79 19.24C124.06 19.24 127.48 22.56 127.48 28.11C127.48 33.67 124.15 37 118.79 37C113.44 37 110.13 33.76 110.13 28.11ZM121.89 28.11C121.89 25.06 120.68 23.26 118.79 23.26C116.91 23.26 115.81 25.13 115.81 28.15C115.81 31.17 116.98 32.97 118.87 32.97C120.76 32.97 121.89 31.21 121.89 28.11ZM129.59 15.54C129.58 14.98 129.73 14.42 130.03 13.95C130.33 13.48 130.76 13.1 131.28 12.87C131.79 12.65 132.36 12.58 132.91 12.67C133.47 12.77 133.98 13.03 134.38 13.41C134.79 13.8 135.07 14.3 135.19 14.85C135.31 15.4 135.27 15.97 135.07 16.49C134.86 17.02 134.51 17.47 134.05 17.79C133.59 18.11 133.04 18.29 132.48 18.3C132.11 18.32 131.74 18.27 131.39 18.15C131.03 18.02 130.71 17.82 130.44 17.57C130.17 17.31 129.96 17 129.81 16.66C129.66 16.32 129.59 15.91 129.59 15.54ZM129.59 19.61L135.15 19.61L135.15 36.62L129.59 36.62L129.59 19.61ZM155.32 28.11C155.32 33.67 152.86 36.84 148.63 36.84C147.55 36.91 146.47 36.64 145.55 36.08C144.62 35.52 143.89 34.68 143.45 33.69L143.34 33.69L143.34 42.06L137.78 42.06L137.78 19.58L143.34 19.58L143.34 22.61L143.45 22.61C143.87 21.6 144.58 20.75 145.5 20.16C146.43 19.57 147.5 19.29 148.6 19.33C152.86 19.41 155.32 22.56 155.32 28.11ZM149.76 28.11C149.76 25.41 148.52 23.69 146.58 23.69C144.63 23.69 143.39 25.43 143.37 28.11C143.36 30.8 144.63 32.52 146.58 32.52C148.52 32.52 149.76 30.8 149.76 28.11ZM164.86 19.22C169.47 19.22 172.27 21.41 172.4 24.91L167.34 24.91C167.34 23.71 166.34 22.95 164.8 22.95C163.27 22.95 162.58 23.54 162.58 24.41C162.58 25.28 163.19 25.56 164.43 25.82L167.99 26.54C171.38 27.26 172.82 28.63 172.82 31.21C172.82 34.73 169.62 36.99 164.9 36.99C160.17 36.99 157.08 34.73 156.84 31.26L162.19 31.26C162.36 32.52 163.36 33.26 164.99 33.26C166.62 33.26 167.36 32.73 167.36 31.84C167.36 30.95 166.84 30.76 165.51 30.48L162.3 29.8C158.99 29.11 157.25 27.35 157.25 24.76C157.28 21.43 160.27 19.22 164.86 19.22ZM191.36 36.58L186.01 36.58L186.01 33.41L185.9 33.41C185.61 34.47 184.96 35.41 184.06 36.05C183.16 36.69 182.08 37.01 180.97 36.95C180.13 37 179.28 36.86 178.5 36.56C177.71 36.25 177 35.78 176.41 35.17C175.82 34.57 175.36 33.84 175.08 33.05C174.79 32.25 174.68 31.4 174.75 30.56L174.75 19.58L180.31 19.58L180.31 29.28C180.31 31.3 181.34 32.37 183.07 32.37C183.47 32.37 183.87 32.29 184.24 32.12C184.61 31.96 184.94 31.71 185.2 31.41C185.47 31.11 185.67 30.75 185.78 30.36C185.9 29.98 185.94 29.57 185.88 29.17L185.88 19.58L191.44 19.58L191.36 36.58ZM194.05 19.58L199.42 19.58L199.42 22.85L199.53 22.85C199.83 21.8 200.46 20.88 201.34 20.23C202.21 19.58 203.28 19.24 204.37 19.26C205.48 19.17 206.58 19.5 207.45 20.19C208.33 20.88 208.91 21.87 209.09 22.96L209.2 22.96C209.54 21.86 210.23 20.89 211.18 20.22C212.12 19.55 213.27 19.21 214.42 19.26C215.18 19.24 215.93 19.37 216.63 19.65C217.33 19.94 217.97 20.37 218.49 20.91C219.01 21.46 219.42 22.11 219.68 22.82C219.93 23.53 220.04 24.29 219.98 25.04L219.98 36.62L214.42 36.62L214.42 26.52C214.42 24.67 213.59 23.82 212.04 23.82C211.69 23.81 211.34 23.89 211.03 24.03C210.71 24.17 210.43 24.38 210.2 24.63C209.97 24.89 209.8 25.2 209.69 25.53C209.59 25.86 209.56 26.21 209.61 26.56L209.61 36.62L204.33 36.62L204.33 26.45C204.33 24.74 203.5 23.82 201.98 23.82C201.63 23.82 201.28 23.89 200.96 24.04C200.64 24.18 200.35 24.39 200.12 24.65C199.89 24.91 199.71 25.22 199.61 25.56C199.51 25.89 199.47 26.25 199.51 26.6L199.51 36.62L193.96 36.62L194.05 19.58Z" fill="#FFFFFF" fill-opacity="1.000000" fill-rule="nonzero"/>
		<path id="Path 809" d="M69.27 14.15L69.27 36.62L63.71 36.62L63.71 14.15L69.27 14.15ZM80.14 19.26C85.4 19.26 88.81 22.58 88.81 28.13C88.81 33.69 85.47 37.02 80.14 37.02C74.8 37.02 71.47 33.78 71.47 28.13C71.47 22.58 74.88 19.26 80.14 19.26ZM80.14 23.28C78.25 23.28 77.06 25.13 77.06 28.13C77.06 31.13 78.23 32.95 80.14 32.95C82.05 32.95 83.23 31.23 83.23 28.13C83.23 25.08 82.03 23.28 80.14 23.28ZM96.23 37.71C96.49 38.27 96.92 38.74 97.46 39.04C98 39.34 98.62 39.46 99.23 39.38C101.35 39.38 102.46 38.23 102.46 36.56L102.46 33.45L102.35 33.45C101.9 34.4 101.19 35.2 100.28 35.74C99.38 36.28 98.34 36.54 97.29 36.49C93.23 36.49 90.55 33.39 90.55 28.08C90.55 22.76 93.1 19.41 97.36 19.41C98.45 19.37 99.52 19.66 100.43 20.24C101.34 20.82 102.06 21.67 102.48 22.67L102.48 19.58L108.03 19.58L108.03 36.43C108.03 40.49 104.46 43.01 99.18 43.01C94.27 43.01 91.21 40.78 90.9 37.71L96.23 37.71ZM99.27 23.71C97.31 23.71 96.1 25.39 96.1 28.11C96.1 30.84 97.29 32.37 99.27 32.37C101.25 32.37 102.48 30.86 102.48 28.11C102.48 25.41 101.24 23.71 99.27 23.71ZM118.79 19.24C124.06 19.24 127.48 22.56 127.48 28.11C127.48 33.67 124.15 37 118.79 37C113.44 37 110.13 33.76 110.13 28.11C110.13 22.56 113.53 19.24 118.79 19.24ZM118.79 23.26C116.91 23.26 115.81 25.13 115.81 28.15C115.81 31.17 116.98 32.97 118.87 32.97C120.76 32.97 121.89 31.21 121.89 28.11C121.89 25.06 120.68 23.26 118.79 23.26ZM130.03 13.95C130.33 13.48 130.76 13.1 131.28 12.87C131.79 12.65 132.36 12.58 132.91 12.67C133.47 12.77 133.98 13.03 134.38 13.41C134.79 13.8 135.07 14.3 135.19 14.85C135.31 15.4 135.27 15.97 135.07 16.49C134.86 17.02 134.51 17.47 134.05 17.79C133.59 18.11 133.04 18.29 132.48 18.3C132.11 18.32 131.74 18.27 131.39 18.15C131.03 18.02 130.71 17.82 130.44 17.57C130.17 17.31 129.96 17 129.81 16.66C129.66 16.32 129.59 15.91 129.59 15.54C129.58 14.98 129.73 14.42 130.03 13.95ZM135.15 19.61L135.15 36.62L129.59 36.62L129.59 19.61L135.15 19.61ZM148.63 36.84C147.55 36.91 146.47 36.64 145.55 36.08C144.62 35.52 143.89 34.68 143.45 33.69L143.34 33.69L143.34 42.06L137.78 42.06L137.78 19.58L143.34 19.58L143.34 22.61L143.45 22.61C143.87 21.6 144.58 20.75 145.5 20.16C146.43 19.57 147.5 19.29 148.6 19.33C152.86 19.41 155.32 22.56 155.32 28.11C155.32 33.67 152.86 36.84 148.63 36.84ZM146.58 23.69C144.63 23.69 143.39 25.43 143.37 28.11C143.36 30.8 144.63 32.52 146.58 32.52C148.52 32.52 149.76 30.8 149.76 28.11C149.76 25.41 148.52 23.69 146.58 23.69ZM172.4 24.91L167.34 24.91C167.34 23.71 166.34 22.95 164.8 22.95C163.27 22.95 162.58 23.54 162.58 24.41C162.58 25.28 163.19 25.56 164.43 25.82L167.99 26.54C171.38 27.26 172.82 28.63 172.82 31.21C172.82 34.73 169.62 36.99 164.9 36.99C160.17 36.99 157.08 34.73 156.84 31.26L162.19 31.26C162.36 32.52 163.36 33.26 164.99 33.26C166.62 33.26 167.36 32.73 167.36 31.84C167.36 30.95 166.84 30.76 165.51 30.48L162.3 29.8C158.99 29.11 157.25 27.35 157.25 24.76C157.28 21.43 160.27 19.22 164.86 19.22C169.47 19.22 172.27 21.41 172.4 24.91ZM186.01 36.58L186.01 33.41L185.9 33.41C185.61 34.47 184.96 35.41 184.06 36.05C183.16 36.69 182.08 37.01 180.97 36.95C180.13 37 179.28 36.86 178.5 36.56C177.71 36.25 177 35.78 176.41 35.17C175.82 34.57 175.36 33.84 175.08 33.05C174.79 32.25 174.68 31.4 174.75 30.56L174.75 19.58L180.31 19.58L180.31 29.28C180.31 31.3 181.34 32.37 183.07 32.37C183.47 32.37 183.87 32.29 184.24 32.12C184.61 31.96 184.94 31.71 185.2 31.41C185.47 31.11 185.67 30.75 185.78 30.36C185.9 29.98 185.94 29.57 185.88 29.17L185.88 19.58L191.44 19.58L191.36 36.58L186.01 36.58ZM199.42 19.58L199.42 22.85L199.53 22.85C199.83 21.8 200.46 20.88 201.34 20.23C202.21 19.58 203.28 19.24 204.37 19.26C205.48 19.17 206.58 19.5 207.45 20.19C208.33 20.88 208.91 21.87 209.09 22.96L209.2 22.96C209.54 21.86 210.23 20.89 211.18 20.22C212.12 19.55 213.27 19.21 214.42 19.26C215.18 19.24 215.93 19.37 216.63 19.65C217.33 19.94 217.97 20.37 218.49 20.91C219.01 21.46 219.42 22.11 219.68 22.82C219.93 23.53 220.04 24.29 219.98 25.04L219.98 36.62L214.42 36.62L214.42 26.52C214.42 24.67 213.59 23.82 212.04 23.82C211.69 23.81 211.34 23.89 211.03 24.03C210.71 24.17 210.43 24.38 210.2 24.63C209.97 24.89 209.8 25.2 209.69 25.53C209.59 25.86 209.56 26.21 209.61 26.56L209.61 36.62L204.33 36.62L204.33 26.45C204.33 24.74 203.5 23.82 201.98 23.82C201.63 23.82 201.28 23.89 200.96 24.04C200.64 24.18 200.35 24.39 200.12 24.65C199.89 24.91 199.71 25.22 199.61 25.56C199.51 25.89 199.47 26.25 199.51 26.6L199.51 36.62L193.96 36.62L194.05 19.58L199.42 19.58Z" stroke="#707070" stroke-opacity="0" stroke-width="1.000000"/>
	</g>
	<g style="mix-blend-mode:normal">
		<path id="Path 810" d="M48.17 15.17C47.23 13.01 45.98 11 44.46 9.2C42.23 6.46 39.43 4.23 36.27 2.64C33.1 1.06 29.64 0.16 26.1 0.02C22.57 -0.13 19.04 0.47 15.76 1.78C12.47 3.1 9.5 5.09 7.04 7.64C4.58 10.18 2.69 13.22 1.48 16.54C0.28 19.87 -0.2 23.42 0.07 26.95C0.33 30.47 1.34 33.91 3.03 37.02C4.72 40.13 7.05 42.84 9.87 44.99C11.67 46.39 13.67 47.53 15.79 48.38C18.77 49.6 21.96 50.23 25.18 50.23C31.83 50.21 38.2 47.56 42.9 42.86C47.6 38.16 50.24 31.78 50.24 25.13C50.25 21.7 49.54 18.31 48.17 15.17ZM25.16 5.11C28.06 5.11 30.91 5.74 33.54 6.96C32.9 7.24 32.22 7.43 31.54 7.54C29.27 7.86 27.17 8.92 25.55 10.53C23.93 12.15 22.88 14.25 22.55 16.52C22.41 17.79 21.83 18.97 20.92 19.87C20 20.76 18.81 21.31 17.53 21.43C15.27 21.76 13.17 22.81 11.55 24.43C9.93 26.05 8.88 28.14 8.55 30.41C8.44 31.62 7.92 32.75 7.09 33.63C5.64 30.58 5 27.22 5.2 23.85C5.41 20.48 6.46 17.22 8.27 14.37C10.08 11.52 12.57 9.17 15.53 7.55C18.49 5.92 21.79 5.11 25.16 5.11ZM9.85 38.1C10.07 37.89 10.29 37.71 10.51 37.49C12.16 35.89 13.22 33.78 13.51 31.5C13.63 30.22 14.21 29.03 15.13 28.13C16.01 27.21 17.2 26.64 18.48 26.54C20.74 26.21 22.84 25.16 24.46 23.54C26.08 21.92 27.13 19.82 27.46 17.56C27.54 16.22 28.12 14.96 29.07 14.02C29.98 13.11 31.18 12.57 32.46 12.48C34.54 12.19 36.49 11.27 38.02 9.83C39.77 11.28 41.24 13.02 42.39 14.98C42.32 15.08 42.24 15.16 42.15 15.24C41.27 16.17 40.07 16.75 38.8 16.87C36.53 17.19 34.43 18.24 32.81 19.86C31.19 21.48 30.14 23.59 29.81 25.85C29.68 27.13 29.12 28.32 28.21 29.22C27.3 30.13 26.11 30.69 24.83 30.82C22.56 31.14 20.45 32.19 18.82 33.81C17.2 35.43 16.13 37.53 15.79 39.8C15.69 40.71 15.38 41.58 14.88 42.34C12.98 41.21 11.28 39.78 9.85 38.1ZM25.16 45.25C23.29 45.25 21.41 44.99 19.61 44.47C20.23 43.32 20.63 42.06 20.79 40.76C20.92 39.49 21.49 38.3 22.39 37.4C23.3 36.5 24.49 35.93 25.76 35.8C28.03 35.48 30.13 34.43 31.75 32.81C33.38 31.19 34.43 29.09 34.76 26.82C34.89 25.55 35.45 24.36 36.36 23.45C37.26 22.55 38.45 21.98 39.72 21.85C41.43 21.63 43.06 21 44.46 20C45.25 22.96 45.34 26.06 44.74 29.06C44.13 32.06 42.85 34.88 40.99 37.31C39.12 39.74 36.73 41.71 33.99 43.07C31.24 44.43 28.23 45.24 25.16 45.25Z" fill="#FFFFFF" fill-opacity="1.000000" fill-rule="nonzero"/>
		<path id="Path 810" d="M44.46 9.2C42.23 6.46 39.43 4.23 36.27 2.64C33.1 1.06 29.64 0.16 26.1 0.02C22.57 -0.13 19.04 0.47 15.76 1.78C12.47 3.1 9.5 5.09 7.04 7.64C4.58 10.18 2.69 13.22 1.48 16.54C0.28 19.87 -0.2 23.42 0.07 26.95C0.33 30.47 1.34 33.91 3.03 37.02C4.72 40.13 7.05 42.84 9.87 44.99C11.67 46.39 13.67 47.53 15.79 48.38C18.77 49.6 21.96 50.23 25.18 50.23C31.83 50.21 38.2 47.56 42.9 42.86C47.6 38.16 50.24 31.78 50.24 25.13C50.25 21.7 49.54 18.31 48.17 15.17C47.23 13.01 45.98 11 44.46 9.2ZM33.54 6.96C32.9 7.24 32.22 7.43 31.54 7.54C29.27 7.86 27.17 8.92 25.55 10.53C23.93 12.15 22.88 14.25 22.55 16.52C22.41 17.79 21.83 18.97 20.92 19.87C20 20.76 18.81 21.31 17.53 21.43C15.27 21.76 13.17 22.81 11.55 24.43C9.93 26.05 8.88 28.14 8.55 30.41C8.44 31.62 7.92 32.75 7.09 33.63C5.64 30.58 5 27.22 5.2 23.85C5.41 20.48 6.46 17.22 8.27 14.37C10.08 11.52 12.57 9.17 15.53 7.55C18.49 5.92 21.79 5.11 25.16 5.11C28.06 5.11 30.91 5.74 33.54 6.96ZM10.51 37.49C12.16 35.89 13.22 33.78 13.51 31.5C13.63 30.22 14.21 29.03 15.13 28.13C16.01 27.21 17.2 26.64 18.48 26.54C20.74 26.21 22.84 25.16 24.46 23.54C26.08 21.92 27.13 19.82 27.46 17.56C27.54 16.22 28.12 14.96 29.07 14.02C29.98 13.11 31.18 12.57 32.46 12.48C34.54 12.19 36.49 11.27 38.02 9.83C39.77 11.28 41.24 13.02 42.39 14.98C42.32 15.08 42.24 15.16 42.15 15.24C41.27 16.17 40.07 16.75 38.8 16.87C36.53 17.19 34.43 18.24 32.81 19.86C31.19 21.48 30.14 23.59 29.81 25.85C29.68 27.13 29.12 28.32 28.21 29.22C27.3 30.13 26.11 30.69 24.83 30.82C22.56 31.14 20.45 32.19 18.82 33.81C17.2 35.43 16.13 37.53 15.79 39.8C15.69 40.71 15.38 41.58 14.88 42.34C12.98 41.21 11.28 39.78 9.85 38.1C10.07 37.89 10.29 37.71 10.51 37.49ZM19.61 44.47C20.23 43.32 20.63 42.06 20.79 40.76C20.92 39.49 21.49 38.3 22.39 37.4C23.3 36.5 24.49 35.93 25.76 35.8C28.03 35.48 30.13 34.43 31.75 32.81C33.38 31.19 34.43 29.09 34.76 26.82C34.89 25.55 35.45 24.36 36.36 23.45C37.26 22.55 38.45 21.98 39.72 21.85C41.43 21.63 43.06 21 44.46 20C45.25 22.96 45.34 26.06 44.74 29.06C44.13 32.06 42.85 34.88 40.99 37.31C39.12 39.74 36.73 41.71 33.99 43.07C31.24 44.43 28.23 45.24 25.16 45.25C23.29 45.25 21.41 44.99 19.61 44.47Z" stroke="#707070" stroke-opacity="0" stroke-width="1.000000"/>
	</g>
</svg>
