<svg width="32.000000" height="32.000000" viewBox="0 0 32 32" fill="none" xmlns="http://www.w3.org/2000/svg" xmlns:xlink="http://www.w3.org/1999/xlink">
	<desc>
			Created with Pixso.
	</desc>
	<defs/>
	<g style="mix-blend-mode:normal">
		<path id="" d="M32 28.75C32 29.18 31.81 29.56 31.56 29.81L29.81 31.56C29.5 31.87 29.12 32 28.75 32C28.31 32 27.93 31.87 27.68 31.56L21.43 25.31C21.12 25.06 21 24.68 21 24.25L21 23.25C18.62 25.12 16 26 13 26C10.62 26 8.43 25.43 6.43 24.25Q4.93 23.4 3.76 22.23Q2.59 21.06 1.75 19.56C0.56 17.56 0 15.37 0 13C0 10.62 0.56 8.5 1.75 6.5C2.87 4.5 4.43 2.93 6.43 1.75C8.43 0.62 10.62 0 13 0C15.37 0 17.5 0.62 19.5 1.75C21.5 2.93 23.06 4.5 24.25 6.5C25.37 8.5 26 10.62 26 13C26 16 25.06 18.68 23.25 21L24.25 21C24.62 21 25 21.18 25.31 21.43L31.56 27.68C31.81 28 32 28.37 32 28.75ZM20.31 17.25C21.06 16 21.5 14.56 21.5 13C21.5 11.5 21.06 10.06 20.31 8.75C19.56 7.5 18.5 6.43 17.25 5.68C15.93 4.93 14.5 4.5 13 4.5C11.43 4.5 10 4.93 8.75 5.68C7.43 6.43 6.37 7.5 5.62 8.75C4.87 10.06 4.5 11.5 4.5 13C4.5 14.56 4.87 16 5.62 17.25C6.37 18.56 7.43 19.62 8.75 20.37C10 21.12 11.43 21.5 13 21.5C14.5 21.5 15.93 21.12 17.25 20.37C18.5 19.62 19.56 18.56 20.31 17.25ZM18.75 11.5C18.87 11.62 19 11.81 19 12L19 14C19 14.25 18.87 14.43 18.75 14.56C18.62 14.68 18.43 14.75 18.25 14.75L14.75 14.75L14.75 18.25C14.75 18.5 14.62 18.68 14.5 18.81C14.37 18.93 14.18 19 14 19L12 19Q11.62 19 11.43 18.81Q11.25 18.62 11.25 18.25L11.25 14.75L7.75 14.75Q7.37 14.75 7.18 14.56Q7 14.37 7 14L7 12C7 11.81 7.06 11.62 7.18 11.5C7.31 11.37 7.5 11.25 7.75 11.25L11.25 11.25L11.25 7.75C11.25 7.56 11.31 7.37 11.43 7.25C11.56 7.12 11.75 7 12 7L14 7C14.18 7 14.37 7.12 14.5 7.25C14.62 7.37 14.75 7.56 14.75 7.75L14.75 11.25L18.25 11.25C18.43 11.25 18.62 11.37 18.75 11.5Z" fill="#FFFFFF" fill-opacity="1.000000" fill-rule="evenodd"/>
	</g>
</svg>
