<svg width="20.000000" height="16.250000" viewBox="0 0 20 16.25" fill="none" xmlns="http://www.w3.org/2000/svg" xmlns:xlink="http://www.w3.org/1999/xlink">
	<desc>
			Created with Pixso.
	</desc>
	<defs/>
	<g style="mix-blend-mode:normal">
		<path id="" d="M20 1.91C19.41 2.77 18.71 3.47 17.92 4.06C17.92 4.17 17.96 4.33 17.96 4.57C17.96 6.44 17.5 8.28 16.6 10C15.66 11.87 14.33 13.32 12.65 14.41C10.78 15.66 8.67 16.25 6.28 16.25C3.98 16.25 1.87 15.66 0 14.41C0.27 14.45 0.58 14.45 0.97 14.45C2.85 14.45 4.57 13.86 6.09 12.69C5.15 12.69 4.37 12.46 3.67 11.91C2.96 11.36 2.5 10.7 2.26 9.88C2.5 9.92 2.77 9.92 3 9.92C3.35 9.92 3.71 9.88 4.1 9.8C3.16 9.6 2.38 9.14 1.75 8.35Q1.3 7.81 1.06 7.19Q0.82 6.53 0.82 5.78L0.82 5.7C1.36 6.05 1.99 6.25 2.65 6.25C2.1 5.85 1.64 5.39 1.32 4.76C0.97 4.17 0.82 3.51 0.82 2.81C0.82 2.1 1.01 1.4 1.4 0.74C2.42 2.03 3.63 3.04 5.11 3.78C6.6 4.57 8.16 4.96 9.84 5.03C9.76 4.72 9.76 4.41 9.76 4.1C9.76 3.39 9.92 2.69 10.31 2.07C10.66 1.44 11.17 0.93 11.79 0.54C12.42 0.19 13.08 0 13.82 0Q14.48 0 15.08 0.19Q15.27 0.26 15.46 0.35C15.97 0.58 16.44 0.89 16.83 1.28C17.77 1.13 18.63 0.78 19.45 0.31C19.14 1.28 18.51 2.03 17.65 2.57C18.43 2.5 19.21 2.26 20 1.91Z" fill="#FFFFFF" fill-opacity="1.000000" fill-rule="evenodd"/>
	</g>
</svg>
